<svg width="320" height="72" viewBox="0 0 320 72" fill="none" xmlns="http://www.w3.org/2000/svg">
  <rect width="320" height="72" rx="14" fill="#0d1420"/>
  <!-- Chart icon -->
  <line x1="18" y1="54" x2="58" y2="54" stroke="#1e3a6e" stroke-width="0.8"/>
  <line x1="18" y1="44" x2="58" y2="44" stroke="#1e3a6e" stroke-width="0.8"/>
  <line x1="18" y1="34" x2="58" y2="34" stroke="#1e3a6e" stroke-width="0.8"/>
  <line x1="18" y1="24" x2="58" y2="24" stroke="#1e3a6e" stroke-width="0.8"/>
  <line x1="18" y1="18" x2="18" y2="56" stroke="#1e3a6e" stroke-width="0.8"/>
  <path d="M18 48 L26 40 L32 43 L40 30 L48 26 L58 23 L58 54 L18 54 Z" fill="#1a3460" opacity="0.7"/>
  <polyline points="18,48 26,40 32,43 40,30 48,26 58,23" stroke="#4f7ec9" stroke-width="2.2" fill="none" stroke-linecap="round" stroke-linejoin="round"/>
  <circle cx="58" cy="23" r="3.5" fill="#7aaef5"/>
  <circle cx="58" cy="23" r="1.8" fill="#ffffff"/>
  <!-- Wordmark -->
  <text x="72" y="42" font-family="'Playfair Display', Georgia, serif" font-weight="900" font-size="28" fill="#ffffff" letter-spacing="-0.5">Chartwell</text>
  <text x="73" y="56" font-family="'DM Mono', 'Courier New', monospace" font-weight="400" font-size="8.5" fill="#4f7ec9" letter-spacing="2.2">MACRO &amp; FINANCIAL CHARTS</text>
</svg>
